#N canvas 6 23 767 995 12;
#X obj 171 35 notein;
#X obj 207 125 mtof;
#X obj 281 605 oscparse;
#X obj 260 667 print packet;
#X msg 435 548 disconnect;
#X obj 416 574 netsend -u -b;
#X obj 281 630 print reassembled;
#X text 519 548 don't send;
#X obj 260 556 oscformat /test;
#X obj 261 190 osc~;
#X obj 61 169 bng 15 250 50 0 empty empty empty 17 7 0 10 -262144 -1
-1;
#X obj 261 231 *~;
#X obj 437 137 osc~ 2;
#X obj 437 173 *~;
#X obj 539 128 vsl 15 40 0.01 1 1 0 empty empty empty 0 -9 0 10 -262130
-1 -1 500 1;
#X obj 419 208 *~;
#X obj 261 279 *~ 0.1;
#X obj 265 366 dac~ 1 2;
#X obj 320 278 *~ 0.1;
#X obj 439 99 hsl 40 15 0 3 0 0 empty empty empty -2 -8 0 10 -232576
-1 -1 3100 1;
#X obj 336 140 osc~ 2;
#X obj 336 214 *~;
#X obj 390 171 vsl 15 40 0 1 0 0 empty empty empty 0 -9 0 10 -262130
-1 -1 3900 1;
#X obj 339 102 hsl 40 15 0.01 5 1 1 empty empty empty -2 -8 0 10 -232576
-1 -1 0 1;
#X floatatom 260 407 5 0 0 0 - - -;
#X floatatom 337 356 5 0 0 0 - - -;
#X obj 337 327 snapshot~;
#X floatatom 418 295 5 0 0 0 - - -;
#X obj 418 263 snapshot~;
#X obj 59 197 loadbang;
#X msg 60 235 1;
#X msg 260 522 \$1 \$2 \$3;
#X obj 260 480 pack 0 0 0;
#X obj 60 270 metro 20;
#X obj 260 327 freeverb~;
#X msg 425 523 connect 192.168.20.53 8080;
#X floatatom 335 66 0 0 0 0 - - -;
#X floatatom 388 66 0 0 0 0 - - -;
#X obj 335 40 ctlin 10;
#X floatatom 262 156 5 0 0 0 - - -;
#X connect 0 0 1 0;
#X connect 1 0 10 0;
#X connect 1 0 39 0;
#X connect 2 0 6 0;
#X connect 4 0 5 0;
#X connect 8 0 3 0;
#X connect 8 0 2 0;
#X connect 8 0 5 0;
#X connect 9 0 11 0;
#X connect 9 0 15 0;
#X connect 11 0 16 0;
#X connect 12 0 13 0;
#X connect 13 0 15 1;
#X connect 14 0 13 1;
#X connect 15 0 28 0;
#X connect 15 0 18 0;
#X connect 16 0 34 0;
#X connect 18 0 34 1;
#X connect 19 0 12 0;
#X connect 20 0 21 0;
#X connect 21 0 11 1;
#X connect 21 0 26 0;
#X connect 22 0 21 1;
#X connect 23 0 20 0;
#X connect 24 0 32 0;
#X connect 25 0 32 1;
#X connect 26 0 25 0;
#X connect 27 0 32 2;
#X connect 28 0 27 0;
#X connect 29 0 30 0;
#X connect 30 0 33 0;
#X connect 31 0 8 0;
#X connect 32 0 31 0;
#X connect 33 0 26 0;
#X connect 33 0 28 0;
#X connect 33 0 32 0;
#X connect 34 0 17 0;
#X connect 34 1 17 1;
#X connect 35 0 5 0;
#X connect 36 0 23 0;
#X connect 38 0 36 0;
#X connect 38 1 37 0;
#X connect 39 0 9 0;
